<svg xmlns="http://www.w3.org/2000/svg" viewBox="100 370 810 220">
  <g>
    <path d="M298.2,403c10,0,18.09,7.49,18.09,17.47,0,9.77-8.11,17.25-18.09,17.25s-17.88-7.48-17.88-17.25c0-10,7.9-17.47,17.88-17.47m-13.93,54.89h28.07V560.76H284.27Z" fill="#2c1933"/>
    <path d="M434.8,560.76H406.94V500.67c0-11.85-7.69-20-19.13-20s-19.54,8.11-19.54,20v60.09H340.2V457.84H366v9.36c7.28-7.28,17.88-11.65,30.15-11.65,23.91,0,38.67,16.43,38.67,41.38Z" fill="#2c1933"/>
    <path d="M548.11,560.76H522.32v-10c-7.48,7.69-18.29,12.47-31.39,12.47-21.83,0-35.55-12.68-35.55-30.77,0-18.5,15-29.94,38.88-29.94H520V498c0-11.44-6.65-18.09-19.13-18.09-10.6,0-18.09,4.37-27.23,14.14l-14.56-17.26Q476.9,455.55,504,455.55c26.82,0,44.08,15.6,44.08,44.08ZM520,521.05H498c-9.15,0-14.35,3.53-14.35,10.39s5.83,11.23,14.77,11.23c12.26,0,21.62-8.53,21.62-20.38Z" fill="#2c1933"/>
    <path d="M638.34,482.58h-7.49c-16.84,0-27.65,9.15-27.65,26.82v51.36H575.13V457.84h25.78v12.27a35.71,35.71,0,0,1,28.28-13.52,30.45,30.45,0,0,1,9.15,1.25Z" fill="#2c1933"/>
    <path d="M669.73,403c10,0,18.09,7.49,18.09,17.47,0,9.77-8.11,17.25-18.09,17.25s-17.88-7.48-17.88-17.25c0-10,7.9-17.47,17.88-17.47M655.8,457.84h28.07V560.76H655.8Z" fill="#2c1933"/>
    <path d="M734.18,518.76c3.33,13.1,13.93,20.37,28.9,20.37,10.19,0,19.75-3.53,28.69-10.39l11.64,19.13c-12.26,10.18-26,15.38-41.16,15.38-31.81.63-57-24.12-56.35-53.85-.62-29.73,24.12-54.47,53.85-53.85,28.48,0,48.45,21,48.45,47.82a66,66,0,0,1-1.88,15.39ZM781,499c-.21-12.69-10-20.79-22.25-20.79-11.85,0-21.41,8.1-24.53,20.79Z" fill="#2c1933"/>
    <path d="M834.81,526.24c8.94,9.36,18.71,13.93,28.89,13.93,7.49,0,13.1-2.91,13.1-8.52,0-4.37-2.91-6-10.6-9.36l-11-4.57c-18.92-7.69-28.07-16.22-28.07-31.4,0-19.33,15.39-30.77,37.84-30.77,15.39,0,27.65,5.2,37,15.39l-14.14,17.25c-6.86-6.44-14.55-9.77-23.08-9.77-6.86,0-11,2.5-11,7.28,0,3.95,2.7,5.82,10.81,9.15l10,4.16c20,8.11,28.9,16.21,28.9,31.39,0,10.19-3.75,18.3-11.44,24.12q-11.22,8.73-28.69,8.73c-18.09,0-33.27-7.48-42.62-20Z" fill="#2c1933"/>
    <rect x="191.9" y="406.95" width="61.53" height="26.2" fill="#a93cd6"/>
    <path d="M177,407v75.43a26.91,26.91,0,0,1-26.91-26.91V407Z" fill="#2c1933"/>
    <path d="M203.25,454.44a52.82,52.82,0,0,0-11.41,1.24L191.76,482h11.49a25.58,25.58,0,1,1-25.48,27.83H150.15a53.15,53.15,0,1,0,53.1-55.41" fill="#2c1933"/>
  </g>
</svg>
