<?xml version="1.0" encoding="UTF-8"?>
<svg width="150px" height="132px" viewBox="0 0 150 132" version="1.1" xmlns="http://www.w3.org/2000/svg" xmlns:xlink="http://www.w3.org/1999/xlink">
    <title>plan_hobby</title>
    <g id="Page-1" stroke="none" stroke-width="1" fill="none" fill-rule="evenodd">
        <g id="plan_hobby">
            <rect id="bg-area-copy" x="0" y="0" width="150" height="132"></rect>
            <rect id="Rectangle" stroke="#C6D5E0" stroke-width="0.5" transform="translate(109.236009, 25.078749) rotate(-179.999900) translate(-109.236009, -25.078749) " x="104.919059" y="20.7617989" width="8.6339" height="8.6339"></rect>
            <rect id="Rectangle" fill="#E8F0FC" fill-rule="nonzero" transform="translate(134.082461, 54.403806) rotate(-179.999900) translate(-134.082461, -54.403806) " x="129.765511" y="50.0868555" width="8.6339" height="8.6339"></rect>
            <rect id="Rectangle" fill="#C6D5E0" fill-rule="nonzero" transform="translate(21.322557, 109.863702) rotate(-179.999900) translate(-21.322557, -109.863702) " x="17.0056075" y="105.546752" width="8.6339" height="8.6339"></rect>
            <rect id="Rectangle" stroke="#C6D5E0" stroke-width="0.5" transform="translate(104.503810, 82.866657) rotate(-179.999900) translate(-104.503810, -82.866657) " x="62.4528603" y="40.8157071" width="84.1019" height="84.1019"></rect>
            <rect id="Rectangle" stroke="#D0DBE1" stroke-width="0.5" fill="#E8F0FC" fill-rule="nonzero" transform="translate(52.480754, 50.455248) rotate(-179.999900) translate(-52.480754, -50.455248) " x="10.4298038" y="8.40429793" width="84.1019" height="84.1019"></rect>
            <rect id="Rectangle" stroke="#172133" stroke-width="0.5" fill="#FFFFFF" fill-rule="nonzero" x="75.2292" y="76.7855" width="54.5363" height="37.4284" rx="0.5"></rect>
            <rect id="Rectangle" stroke="#172133" stroke-width="0.5" fill="#FFFFFF" fill-rule="nonzero" x="75.2292" y="80.9316" width="19.5818" height="33.2823" rx="0.5"></rect>
            <rect id="Rectangle" stroke="#172133" stroke-width="0.5" fill="#FFFFFF" fill-rule="nonzero" x="75.2292" y="76.7855" width="54.5363" height="4.1803" rx="0.5"></rect>
            <g id="b5be96aa-1187-411c-9f80-92df41fb65a6" transform="translate(101.000000, 87.000000)" fill="#51BCEF" fill-rule="nonzero">
                <g id="af1a5d67-4002-4af8-9bd3-250e1dde9f6b">
                    <path d="M8.4968,8.6647 C7.98989632,8.6647 7.52461439,8.38419117 7.288,7.9359 C6.95452803,7.28123838 7.2132187,6.48017361 7.8666,6.1442 C7.8795,6.1442 7.8795,6.1313 7.8924,6.1313 C8.0807479,6.03845151 8.28689551,5.9872898 8.4968,5.9813 C9.00367581,5.9813 9.46894176,6.26176349 9.7056,6.71 C10.0390063,7.36472202 9.78028636,8.1657837 9.1269,8.5018 C9.114,8.5018 9.114,8.5146 9.1012,8.5146 C8.91466581,8.6123146 8.70737645,8.66375967 8.4968,8.6646 M6.9022,11.3908 L6.8293,11.3908 C6.0800436,11.3708583 5.48589954,10.7525138 5.49587125,10.0030584 C5.50584296,9.25360297 6.11622827,8.65128498 6.86575,8.65128498 C7.61527173,8.65128498 8.22565704,9.25360297 8.23562875,10.0030584 C8.24560046,10.7525138 7.6514564,11.3708583 6.9022,11.3908 M8.5053,14.1208 C7.8706807,14.119243 7.32213126,13.6774945 7.1853,13.0578 C7.11219209,12.7119046 7.18341738,12.351155 7.3825,12.059 C7.80008091,11.4418635 8.63467989,11.2722765 9.26,11.6775 C9.55924509,11.8729667 9.7676802,12.1801987 9.8387,12.5305 C9.91048045,12.8764031 9.83935768,13.2366334 9.6415,13.5293 C9.38475813,13.9031099 8.95896896,14.1248126 8.5055,14.1208 M11.7033,14.108 C11.1964242,14.108 10.7311582,13.8275365 10.4945,13.3793 C10.3295899,13.0625695 10.3031994,12.6916899 10.4216,12.3548 C10.5366803,12.0172386 10.7799773,11.738523 11.0989,11.5789 C11.2891167,11.4786753 11.5012017,11.42714 11.7162,11.4289 C12.2266815,11.4285842 12.6939908,11.715279 12.925,12.1705 C13.258398,12.8251928 12.9996736,13.6262239 12.3463,13.9622 C12.3334,13.9622 12.3334,13.9751 12.3206,13.9751 C12.1263035,14.0618128 11.916066,14.1070754 11.7033,14.108 M13.3108,11.3774255 L13.2379,11.3774255 C12.7616292,11.3421737 12.3403299,11.0555357 12.1327014,10.6254599 C11.925073,10.1953841 11.9626591,9.68720925 12.2313014,9.29235986 C12.4999438,8.89751046 12.9588292,8.67597357 13.4351,8.7112 C13.7759072,8.7346265 14.0941802,8.88990703 14.3224,9.1441 C14.5688631,9.40231765 14.694936,9.75254033 14.6696,10.1086 C14.6248458,10.824969 14.0285524,11.381767 13.3108,11.3774255 M11.7033,8.65121002 C11.2162269,8.65103573 10.7671959,8.38789856 10.5289957,7.96304459 C10.2907955,7.53819063 10.3005478,7.01783028 10.5545,6.6022 C10.5545,6.5894 10.5674,6.5894 10.5674,6.5765 C10.8207567,6.19733565 11.2472821,5.97038614 11.7033,5.97209036 C12.1903731,5.97226427 12.6394041,6.23540144 12.8776043,6.66025541 C13.1158045,7.08510937 13.1060522,7.60546972 12.8521,8.0211 C12.8521,8.0339 12.8393,8.0339 12.8393,8.0468 C12.5859237,8.42599397 12.1593533,8.65294744 11.7033,8.65121002 M7.1381,3.7002 C7.21944443,3.85515889 7.23530839,4.03625002 7.18214564,4.20299202 C7.12898288,4.36973402 7.01122653,4.50822266 6.8552,4.5875 C6.85177108,4.58744458 6.84846772,4.5887892 6.84605224,4.59122354 C6.84363677,4.59365789 6.8423179,4.59697162 6.8424,4.6004 C6.50812605,4.7649959 6.1035636,4.63393734 5.9293,4.3046 C5.84798347,4.14963594 5.83213451,3.96855486 5.88529472,3.80182085 C5.93845493,3.63508683 6.05619322,3.4965977 6.2122,3.4173 C6.21564609,3.41738307 6.21897574,3.41605067 6.22141321,3.41361321 C6.22385067,3.41117574 6.22518307,3.40784609 6.2251,3.4044 C6.38527847,3.32188748 6.57176387,3.30671508 6.74317382,3.36224965 C6.91458376,3.41778422 7.05674105,3.53943253 7.1381,3.7002 M3.023,9.3928 C3.26278846,9.40827944 3.47581508,9.55127853 3.58095706,9.76734167 C3.68609903,9.98340482 3.66717392,10.2392777 3.53138861,10.4375211 C3.3956033,10.6357646 3.16385655,10.7458669 2.9244,10.7259 C2.55896283,10.6954283 2.2863134,10.3762159 2.31336213,10.0105095 C2.34041085,9.64480301 2.65705631,9.36917666 3.023,9.3928 L3.023,9.3928 M5.9893,15.7497 C6.19851014,15.4425269 6.61301859,15.3555014 6.9281,15.5526 C7.23292098,15.7504601 7.32584191,16.154445 7.1381,16.4656 C7.1381821,16.4690284 7.13686323,16.4723421 7.13444776,16.4747765 C7.13203228,16.4772108 7.12872892,16.4785554 7.1253,16.4785 C6.91608986,16.7856731 6.50158141,16.8726986 6.1865,16.6756 C5.88167902,16.4777399 5.78875809,16.073755 5.9765,15.7626 C5.9893,15.7626 5.9893,15.7626 5.9893,15.7497 M13.075,16.4056 C12.9936835,16.2506359 12.9778345,16.0695549 13.0309947,15.9028208 C13.0841549,15.7360868 13.2018932,15.5975977 13.3579,15.5183 C13.3613461,15.5183831 13.3646757,15.5170507 13.3671132,15.5146132 C13.3695507,15.5121757 13.3708831,15.5088461 13.3708,15.5054 C13.7050448,15.3408132 14.1095758,15.4718759 14.2838,15.8012 C14.3651444,15.9561589 14.3810084,16.13725 14.3278456,16.303992 C14.2746829,16.470734 14.1569265,16.6092227 14.0009,16.6885 C13.9974711,16.6884446 13.9941677,16.6897892 13.9917522,16.6922235 C13.9893368,16.6946579 13.9880179,16.6979716 13.9881,16.7014 C13.6537218,16.8645352 13.2502045,16.7338152 13.075,16.4056 M17.1858,10.7002 C16.8203628,10.6697283 16.5477134,10.3505159 16.5747621,9.98480947 C16.6018109,9.61910301 16.9184563,9.34347666 17.2844,9.3671 C17.644443,9.39977309 17.9157944,9.70875237 17.9017,10.07 C17.8946842,10.2500923 17.8141268,10.4194298 17.6788273,10.538495 C17.5435277,10.6575601 17.365323,10.7159361 17.1858,10.7 L17.1858,10.7 M14.2238,4.3387 C14.0146584,4.64589459 13.600176,4.73296811 13.2851,4.5359 C13.1374575,4.44133461 13.0336237,4.29179399 12.9966074,4.12041514 C12.9595911,3.94903628 12.9924489,3.76997147 13.0879,3.6229 C13.0878179,3.61947162 13.0891368,3.61615789 13.0915522,3.61372354 C13.0939677,3.6112892 13.0972711,3.60994458 13.1007,3.61 C13.3098787,3.30279216 13.7243932,3.21572116 14.0395,3.4128 C14.3443341,3.61069769 14.4372522,4.01471446 14.2495,4.3259 L14.2238,4.3387 M5.655,1.6468 C5.70747513,1.74793266 5.71753336,1.86579436 5.68295342,1.97435624 C5.64837348,2.08291812 5.57200019,2.173249 5.4707,2.2254 C5.46725391,2.22531693 5.46392426,2.22664933 5.46148679,2.22908679 C5.45904933,2.23152426 5.45771693,2.23485391 5.4578,2.2383 C5.35356138,2.2926082 5.23174413,2.30228272 5.12024012,2.26510844 C5.00873611,2.22793415 4.91709523,2.14709489 4.8663,2.0411 C4.81376566,1.93996248 4.80367529,1.82206632 4.8382594,1.71347261 C4.8728435,1.60487889 4.94925391,1.51453084 5.0506,1.4624 L5.0634,1.4624 C5.2777833,1.35103355 5.54186223,1.43334618 5.655,1.6468 M0.4811,9.6368 C0.720211682,9.64389686 0.908296859,9.84348832 0.9012,10.0826 C0.894103141,10.3217117 0.694511682,10.5097969 0.4554,10.5027 L0.43,10.5027 C0.275321863,10.4981091 0.134842566,10.4113472 0.0614793014,10.2750966 C-0.0118839633,10.1388459 -0.00698557098,9.97380634 0.0743293014,9.84214657 C0.155644174,9.71048681 0.301021863,9.63220914 0.4557,9.6368 L0.4814,9.6368 M4.9266,18.0342 C5.06077354,17.8353468 5.32924307,17.7801338 5.531,17.9099 C5.72738163,18.0327663 5.78848597,18.2906882 5.6681,18.4886 L5.6553,18.5014 C5.52112646,18.7002532 5.25265693,18.7554662 5.0509,18.6257 C4.95568168,18.5639939 4.88901432,18.4668515 4.86568014,18.3558124 C4.84234597,18.2447732 4.86427324,18.1290132 4.9266,18.0342 L4.9266,18.0342 M14.5585,18.4542 C14.5059657,18.3530625 14.4958753,18.2351663 14.5304594,18.1265726 C14.5650435,18.0179789 14.6414539,17.9276308 14.7428,17.8755 L14.7556,17.8755 C14.9701376,17.7661994 15.2326962,17.8479937 15.3472,18.0598 C15.3996794,18.1609475 15.4097403,18.278824 15.3751612,18.3874021 C15.3405821,18.4959802 15.2642071,18.5863292 15.1629,18.6385 L15.15,18.6385 C14.9356672,18.7498145 14.671671,18.6675584 14.5585,18.4542 M19.7323,10.4642 C19.4967506,10.446444 19.3201941,10.2410994 19.33795,10.00555 C19.355706,9.77000058 19.5610506,9.59344407 19.7966,9.6112 C19.9489738,9.62268607 20.0836452,9.7145901 20.1498849,9.85229271 C20.2161245,9.98999532 20.203869,10.1525762 20.1177349,10.2787927 C20.0316007,10.4050093 19.8846738,10.4756861 19.7323,10.4642 M15.2872,2.0583 C15.1555232,2.25660698 14.8896593,2.31360236 14.6882644,2.18669863 C14.4868696,2.0597949 14.4235417,1.79536784 14.5456,1.591 L14.5456,1.579 C14.6805289,1.3802672 14.9495182,1.32575417 15.1511733,1.45627527 C15.3528284,1.58679637 15.41325,1.85452034 15.2872,2.059 L15.2872,2.059 M5.7924,6.7142 C6.15148392,6.94735831 6.26143253,7.4230065 6.0411,7.7901 L6.0282,7.803 C5.77790138,8.16303304 5.28808671,8.26139312 4.9182,8.0259 C4.55649362,7.79351126 4.45102951,7.31225856 4.6824,6.9499 L4.6953,6.9371 C4.8102229,6.76078443 4.99105523,6.63792288 5.19730539,6.59602626 C5.40355554,6.55412964 5.61799251,6.59669818 5.7926,6.7142 M4.9996,12.0595 C5.39263096,11.8585593 5.87414478,12.0139325 6.0756,12.4067 C6.16885178,12.5919709 6.18465853,12.8067048 6.11954079,13.0036335 C6.05442305,13.2005621 5.91371861,13.363543 5.7284,13.4567 C5.72495391,13.4566169 5.72162426,13.4579493 5.71918679,13.4603868 C5.71674933,13.4628243 5.71541693,13.4661539 5.7155,13.4696 C5.32198573,13.6638661 4.84532761,13.5100454 4.6396,13.1224 C4.54632085,12.9371337 4.53049955,12.7223899 4.59561984,12.5254535 C4.66074014,12.3285171 4.8014622,12.1655369 4.9868,12.0724 C4.9867179,12.0689716 4.98803677,12.0656579 4.99045224,12.0632235 C4.99286772,12.0607892 4.99617108,12.0594446 4.9996,12.0595 M9.2605,15.3945 C9.27262019,15.0720007 9.47781959,14.7885593 9.78041077,14.6763486 C10.083002,14.5641378 10.4233923,14.6452567 10.6428528,14.8818782 C10.8623133,15.1184997 10.9176233,15.4640234 10.7829908,15.7573267 C10.6483584,16.0506299 10.3502982,16.2339491 10.0278,16.2218 L10.0149,16.2218 C9.58020817,16.1972609 9.24495044,15.8296062 9.2605,15.3945 M14.4215,13.3926 C14.0610206,13.159406 13.9557948,12.6792858 14.1857,12.3167 C14.1856169,12.3132539 14.1869493,12.3099243 14.1893868,12.3074868 C14.1918243,12.3050493 14.1951539,12.3037169 14.1986,12.3038 C14.4488986,11.943767 14.9387133,11.8454069 15.3086,12.0809 C15.6703064,12.3132887 15.7757705,12.7945414 15.5444,13.1569 L15.5315,13.1697 C15.2817524,13.5305717 14.7912022,13.6290795 14.4215,13.3926 M15.2145,8.0473 C14.8209857,8.24156609 14.3443276,8.08774539 14.1386,7.7001 C14.0430382,7.51664986 14.0245892,7.30266226 14.0873419,7.10556301 C14.1500945,6.90846375 14.2888658,6.74453209 14.4729,6.6501 C14.4763461,6.65018307 14.4796757,6.64885067 14.4821132,6.64641321 C14.4845507,6.64397574 14.4858831,6.64064609 14.4858,6.6372 C14.8793143,6.44293391 15.3559724,6.59675461 15.5617,6.9844 C15.6549792,7.16966626 15.6708005,7.38441013 15.6056802,7.58134651 C15.5405599,7.77828288 15.3998378,7.94126308 15.2145,8.0344 C15.2231,8.0344 15.2145,8.0473 15.2145,8.0473 M10.8887,4.7 C10.8765798,5.02249927 10.6713804,5.30594067 10.3687892,5.41815142 C10.066198,5.53036216 9.72580774,5.44924333 9.5063472,5.2126218 C9.28688666,4.97600026 9.23157671,4.63047656 9.36620917,4.33717334 C9.50084163,4.04387012 9.79890182,3.86055088 10.1214,3.8727 L10.1342,3.8727 C10.3443385,3.88128947 10.5423158,3.97355686 10.6840359,4.12895117 C10.8257559,4.28434548 10.8994486,4.48996087 10.8887,4.7 M2.8128,5.2915 C2.93401673,5.3669851 3.02022104,5.48759527 3.05239509,5.62672228 C3.08456915,5.7658493 3.06006911,5.9120606 2.9843,6.0331 L2.9714,6.046 C2.79833666,6.30017789 2.45442562,6.37047598 2.1955,6.2046 C2.07427885,6.12911699 1.98807767,6.00849856 1.95592082,5.86936485 C1.92376398,5.73023114 1.94829501,5.58402007 2.0241,5.463 L2.0369,5.4501 C2.2149395,5.20350985 2.55227495,5.13455586 2.8128,5.2915 M2.2728,13.8861 C2.55015919,13.7519477 2.88393289,13.8619373 3.0272,14.1347 C3.16183283,14.4011304 3.05666103,14.726284 2.7915,14.8634 L2.7786,14.8634 C2.50124081,14.9975523 2.16746711,14.8875627 2.0242,14.6148 C1.956728,14.4858435 1.94513353,14.3348481 1.99212628,14.1971022 C2.03911904,14.0593564 2.14058104,13.9469308 2.2728,13.8861 L2.2728,13.8861 M9.5085,18.6399 C9.51797792,18.3297743 9.77706557,18.0860498 10.0871914,18.0955234 C10.3973172,18.104997 10.6410453,18.3640812 10.6315761,18.6742072 C10.6221069,18.9843331 10.3630261,19.2280649 10.0529,19.2186 L10.04,19.2186 C9.73608274,19.1999229 9.5013143,18.9443058 9.5085,18.6399 M17.3958,14.7991 C17.2745412,14.7236515 17.1883016,14.6030394 17.1561238,14.4638965 C17.1239461,14.3247535 17.148477,14.178525 17.2243,14.0575 L17.2372,14.0447 C17.4101946,13.7904878 17.7541157,13.7201786 18.013,13.8861 C18.1342588,13.9615485 18.2204984,14.0821606 18.2526762,14.2213035 C18.2848539,14.3604465 18.260323,14.506675 18.1845,14.6277 L18.1716,14.6405 C18.0906753,14.7655196 17.9628861,14.8527556 17.8169786,14.8825841 C17.6710712,14.9124125 17.5192978,14.8823287 17.3958,14.7991 M17.9402,6.2174 C17.6628118,6.35156145 17.3290065,6.24157605 17.1857,5.9688 C17.1180182,5.84132084 17.1048968,5.69185225 17.1493327,5.55453066 C17.1937686,5.41720907 17.2919667,5.30376232 17.4215,5.2401 L17.4343,5.2401 C17.7116882,5.10593855 18.0454935,5.21592395 18.1888,5.4887 C18.2528859,5.61823013 18.2626829,5.76796602 18.216021,5.90474221 C18.169359,6.0415184 18.0700895,6.15404566 17.9402,6.2174 L17.9402,6.2174 M10.6444,1.4636 C10.6402813,1.69552955 10.4943102,1.90118301 10.2767289,1.98159856 C10.0591477,2.06201412 9.81451678,2.00072269 9.6605543,1.82721813 C9.50659183,1.65371356 9.47482924,1.40352953 9.58055089,1.19705627 C9.68627255,0.990583006 9.9078267,0.870106162 10.1386,0.8936 C10.4307478,0.921247115 10.6516941,1.17023756 10.6444,1.4636" id="a85d1bf4-78f0-481b-973e-ea3a01bdea50"></path>
                </g>
            </g>
            <rect id="Rectangle" stroke="#172133" stroke-width="0.5" fill="#FFFFFF" fill-rule="nonzero" x="15.1977" y="58.4702" width="3.0004" height="14.24" rx="1.1423"></rect>
            <rect id="Rectangle" stroke="#172133" stroke-width="0.5" fill="#FFFFFF" fill-rule="nonzero" x="22.8223" y="53.0189" width="3.0004" height="14.24" rx="1.1423"></rect>
            <rect id="Rectangle" stroke="#172133" stroke-width="0.5" fill="#FFFFFF" fill-rule="nonzero" x="30.4469" y="47.9941" width="3.0004" height="14.24" rx="1.1423"></rect>
            <path d="M44.3961,49.973 L7.846,73.9682 C7.73829035,74.04017 7.65259528,74.1405398 7.5984,74.2582 L4.2039,81.5 C4.07219821,81.7389778 4.08982061,82.0324214 4.24917577,82.2539201 C4.40853093,82.4754189 4.6811526,82.5854057 4.9496,82.5365 L47.1226,70.6265 L44.3961,49.973 Z" id="Path" fill="#51BCEF" fill-rule="nonzero"></path>
            <polyline id="Path" stroke="#172133" stroke-width="0.5" stroke-linecap="round" stroke-linejoin="round" points="42.21 57.455 43.379 66.118 17.515 75.688"></polyline>
            <polyline id="Path" stroke="#172133" stroke-width="0.5" stroke-linecap="round" stroke-linejoin="round" points="13.481 77.076 5.062 79.67 7.598 74.258 31.947 58.146"></polyline>
            <polygon id="Path" stroke="#172133" stroke-width="0.5" fill="#7054D3" fill-rule="nonzero" stroke-linecap="round" stroke-linejoin="round" points="50.478 92.553 36.548 101.133 34.481 105.358 51.945 102.103"></polygon>
            <line x1="48.1234" y1="100.1052" x2="39.3384" y2="102.3889" id="Path" stroke="#172133" stroke-width="0.5" fill="#7054D3" fill-rule="nonzero" stroke-linecap="round" stroke-linejoin="round"></line>
            <rect id="Rectangle" stroke="#172133" stroke-width="0.5" fill="#FFFFFF" fill-rule="nonzero" transform="translate(96.311100, 65.590200) rotate(180.000000) translate(-96.311100, -65.590200) " x="94.8109" y="58.4702" width="3.0004" height="14.24" rx="1.1423"></rect>
            <rect id="Rectangle" stroke="#172133" stroke-width="0.5" fill="#FFFFFF" fill-rule="nonzero" transform="translate(88.686500, 60.139000) rotate(-180.000000) translate(-88.686500, -60.139000) " x="87.1863" y="53.019" width="3.0004" height="14.24" rx="1.1423"></rect>
            <rect id="Rectangle" stroke="#172133" stroke-width="0.5" fill="#FFFFFF" fill-rule="nonzero" transform="translate(81.061900, 55.114100) rotate(-180.000000) translate(-81.061900, -55.114100) " x="79.5617" y="47.9941" width="3.0004" height="14.24" rx="1.1423"></rect>
            <path d="M68.613,49.973 L105.163,73.9682 C105.27071,74.04017 105.356405,74.1405398 105.4106,74.2582 L108.8052,81.5 C108.936902,81.7389778 108.919279,82.0324214 108.759924,82.2539201 C108.600569,82.4754189 108.327947,82.5854057 108.0595,82.5365 L65.8865,70.6265 L68.613,49.973 Z" id="Path" fill="#51BCEF" fill-rule="nonzero"></path>
            <polyline id="Path" stroke="#172133" stroke-width="0.5" stroke-linecap="round" stroke-linejoin="round" points="70.799 57.455 69.63 66.118 95.494 75.688"></polyline>
            <path d="M99.5279,77.0764 L107.9479,79.6704 L108.8624,81.6845 C108.976646,81.9361466 108.934186,82.231251 108.753628,82.4404806 C108.57307,82.6497102 108.287355,82.7348943 108.0217,82.6587 L78.9241,74.3087" id="Path" stroke="#172133" stroke-width="0.5" stroke-linecap="round" stroke-linejoin="round"></path>
            <polygon id="Path" stroke="#172133" stroke-width="0.5" fill="#7054D3" fill-rule="nonzero" stroke-linecap="round" stroke-linejoin="round" points="62.531 92.553 76.461 101.133 78.528 105.358 61.064 102.103"></polygon>
            <line x1="64.8857" y1="100.1052" x2="73.6707" y2="102.3889" id="Path" stroke="#172133" stroke-width="0.5" fill="#7054D3" fill-rule="nonzero" stroke-linecap="round" stroke-linejoin="round"></line>
            <path d="M69.4,37.2984 C68.1175,29.5076 59.9581,20.3752 56.5587,20.1017 C53.16,20.3752 45,29.5076 43.7183,37.2984 C42.4366,45.0892 51.8383,100.2143 51.945,102.1029 C52.0517,103.9915 56.5589,106.5886 56.5589,106.5886 C56.5589,106.5886 61.0664,103.9917 61.1728,102.1029 C61.2792,100.2141 70.6821,45.0891 69.4,37.2984 Z" id="Path" stroke="#172133" stroke-width="0.5" fill="#FFFFFF" fill-rule="nonzero"></path>
            <path d="M46.3856,36.2532 C46.2234,36.6553 46.6383,37.0343 46.9692,36.7885 C48.1127413,35.9360455 49.3428549,35.2063569 50.6392,34.6115 L50.6392,28.74 C48.860153,31.0219815 47.4269068,33.5535467 46.3856,36.2532 L46.3856,36.2532 Z" id="Path" fill="#0A60DD" fill-rule="nonzero"></path>
            <path d="M56.56,25.0788 C54.8369,25.0788 53.2684,26.2446 51.9217,27.8324 L51.9217,33.7044 C53.3721154,33.0095646 54.9523668,32.6273035 56.56,32.5824 C58.1701344,32.6296572 59.7514703,33.0212403 61.1976,33.7308 L61.1976,27.33 C60.0320119,25.9673887 58.3516448,25.151699 56.56,25.0788 L56.56,25.0788 Z" id="Path" fill="#0A60DD" fill-rule="nonzero"></path>
            <path d="M67.2755,36.4354 C66.6471,34.4482 65.2087,30.6394 62.8623,28.1994 L62.8623,34.6005 C64.2172084,35.2353349 65.4980657,36.0174849 66.6817,36.9328 C66.994,37.1744 67.4012,36.8336 67.2755,36.4354 Z" id="Path" fill="#0A60DD" fill-rule="nonzero"></path>
            <line x1="33.4473" y1="57.1609" x2="39.7565" y2="53.0189" id="Path" stroke="#172133" stroke-width="0.5" stroke-linecap="round" stroke-linejoin="round"></line>
            <line x1="96.7254" y1="68.4289" x2="104.5039" y2="73.5355" id="Path" stroke="#172133" stroke-width="0.5" stroke-linecap="round" stroke-linejoin="round"></line>
            <line x1="53.2414" y1="95.7084" x2="47.1226" y2="40.8351" id="Path" stroke="#C6D5E0" stroke-width="0.5"></line>
            <line x1="59.5065" y1="95.154" x2="65.8865" y2="40.8156" id="Path" stroke="#C6D5E0" stroke-width="0.5"></line>
            <rect id="Rectangle" stroke="#172133" stroke-width="0.5" fill="#0A60DD" fill-rule="nonzero" x="78.0178" y="92.5897" width="14.5335" height="3.4451" rx="1.72255"></rect>
            <rect id="Rectangle" stroke="#172133" stroke-width="0.5" fill="#FFFFFF" fill-rule="nonzero" x="78.0178" y="85.8629" width="14.5335" height="3.4451" rx="1.72255"></rect>
            <rect id="Rectangle" stroke="#172133" stroke-width="0.5" fill="#FFFFFF" fill-rule="nonzero" x="78.0178" y="99.3165" width="14.5335" height="3.4451" rx="1.72255"></rect>
        </g>
    </g>
</svg>