<?xml version="1.0" encoding="UTF-8"?>
<svg width="150px" height="132px" viewBox="0 0 150 132" version="1.1" xmlns="http://www.w3.org/2000/svg" xmlns:xlink="http://www.w3.org/1999/xlink">
    <title>plan_developer</title>
    <g id="Page-1" stroke="none" stroke-width="1" fill="none" fill-rule="evenodd">
        <g id="plan_developer">
            <rect id="bg-area-copy-2" x="0" y="0" width="150" height="132"></rect>
            <rect id="Rectangle" stroke="#C6D5E0" stroke-width="0.5" transform="translate(106.400842, 71.484202) rotate(-179.999900) translate(-106.400842, -71.484202) " x="73.5207422" y="38.6041021" width="65.7602" height="65.7602"></rect>
            <rect id="Rectangle" stroke="#C6D5E0" stroke-width="0.5" transform="translate(45.517484, 66.964508) rotate(-179.999900) translate(-45.517484, -66.964508) " x="9.40273433" y="30.8499083" width="72.2295" height="72.2292"></rect>
            <rect id="Rectangle" fill="#CEE0ED" fill-rule="nonzero" transform="translate(90.824313, 83.368129) rotate(-179.999900) translate(-90.824313, -83.368129) " x="54.709563" y="47.2535293" width="72.2295" height="72.2292"></rect>
            <rect id="Rectangle" stroke="#D0DBE1" stroke-width="0.5" fill="#E8F0FC" fill-rule="nonzero" transform="translate(64.609455, 50.284225) rotate(-179.999900) translate(-64.609455, -50.284225) " x="22.5585052" y="8.23327502" width="84.1019" height="84.1019"></rect>
            <rect id="Rectangle" stroke="#C6D5E0" stroke-width="0.5" transform="translate(57.062412, 25.266938) rotate(-179.999900) translate(-57.062412, -25.266938) " x="52.7454616" y="20.9499882" width="8.6339" height="8.6339"></rect>
            <rect id="Rectangle" stroke="#C6D5E0" stroke-width="0.5" transform="translate(22.498497, 16.656999) rotate(-179.999900) translate(-22.498497, -16.656999) " x="18.1815465" y="12.3400485" width="8.6339" height="8.6339"></rect>
            <rect id="Rectangle" stroke="#C6D5E0" stroke-width="0.5" transform="translate(33.662275, 118.771679) rotate(-179.999900) translate(-33.662275, -118.771679) " x="29.3453247" y="114.454729" width="8.6339" height="8.6339"></rect>
            <rect id="Rectangle" fill="#C6D5E0" fill-rule="nonzero" transform="translate(122.622312, 25.266924) rotate(-179.999900) translate(-122.622312, -25.266924) " x="118.305362" y="20.9499738" width="8.6339" height="8.6339"></rect>
            <rect id="Rectangle" stroke="#172133" stroke-width="0.5" fill="#FFFFFF" fill-rule="nonzero" x="29.0861" y="60.2332" width="44.944" height="27.0012" rx="0.5"></rect>
            <path d="M79.0979,65.4965 L69.6751,75.8888 C69.5789797,75.9947775 69.5257,76.1327254 69.5257,76.2758 L69.5257,98.8283 C69.5257,99.0553767 69.6593472,99.2611918 69.866633,99.353909 C70.0739187,99.4466262 70.3163296,99.4089532 70.4857,99.2577 L85.4921,85.83 C85.4921,85.83 79.5673,75.2176 79.0979,65.4965 Z" id="Path" fill="#51BCEF" fill-rule="nonzero"></path>
            <path d="M113.258,65.4965 L123.1023,75.8865 C123.20376,75.993501 123.2603,76.1353439 123.2603,76.2828 L123.2603,98.828 C123.2603,99.0550767 123.126653,99.2608918 122.919367,99.353609 C122.712081,99.4463262 122.46967,99.4086532 122.3003,99.2574 L106.9409,85.5136 C106.9409,85.5136 112.8435,75.7522 113.258,65.4965 Z" id="Path" fill="#51BCEF" fill-rule="nonzero"></path>
            <rect id="Rectangle" stroke="#172133" stroke-width="0.5" fill="#51BCEF" fill-rule="nonzero" x="86.6061" y="93.2908" width="4.1191" height="12.8693" rx="1.7871"></rect>
            <rect id="Rectangle" stroke="#172133" stroke-width="0.5" fill="#51BCEF" fill-rule="nonzero" x="102.8218" y="93.2908" width="4.1191" height="12.8693" rx="1.7871"></rect>
            <rect id="Rectangle" stroke="#172133" stroke-width="0.5" fill="#0A60DD" fill-rule="nonzero" x="94.714" y="93.2908" width="4.1191" height="22.0851" rx="1.7871"></rect>
            <rect id="Rectangle" stroke="#172133" stroke-width="0.5" fill="#7054D3" fill-rule="nonzero" x="30.0717" y="46.0271" width="30.8507" height="4.1804" rx="2.0902"></rect>
            <rect id="Rectangle" stroke="#172133" stroke-width="0.5" fill="#FFFFFF" fill-rule="nonzero" x="30.0717" y="37.6971" width="30.8507" height="4.1804" rx="2.0902"></rect>
            <path d="M95.1352,18.3363 C89.8863,24.7811 67.3905,55.4576 86.3135,87.0563 C86.5611528,87.4655172 87.0044797,87.7163 87.4828,87.7163 L104.8777,87.7163 C105.356036,87.7163 105.79939,87.4655611 106.047,87.0563 C124.9705,55.4578 102.4748,24.7813 97.2259,18.3363 C96.9706546,18.0206749 96.586468,17.8372725 96.18055,17.8372725 C95.774632,17.8372725 95.3904454,18.0206749 95.1352,18.3363 L95.1352,18.3363 Z" id="Path" stroke="#172133" stroke-width="0.5" fill="#FFFFFF" fill-rule="nonzero"></path>
            <line x1="85.7354" y1="78.5375" x2="106.2563" y2="78.5375" id="Path" stroke="#172133" stroke-width="0.5" stroke-linecap="round" stroke-linejoin="round"></line>
            <line x1="90.421" y1="82.8069" x2="101.5706" y2="82.8069" id="Path" stroke="#172133" stroke-width="0.5" stroke-linecap="round" stroke-linejoin="round"></line>
            <line x1="91.69" y1="28.5587" x2="100.3016" y2="28.5587" id="Path" stroke="#172133" stroke-width="0.5" stroke-linecap="round" stroke-linejoin="round"></line>
            <circle id="Oval" fill="#0A60DD" fill-rule="nonzero" cx="95.9958" cy="54.2207" r="11.5541"></circle>
            <path d="M95.9958,42.6666 C101.430762,42.667467 106.130605,46.4555181 107.285806,51.7662926 C108.441008,57.0770672 105.739326,62.4751005 100.7958,64.7335" id="Path" stroke="#172133" stroke-width="0.5" stroke-linecap="round" stroke-linejoin="round"></path>
            <path d="M90.7514,64.5187 C85.8872178,62.0347725 83.4217999,56.4882388 84.8371,51.2131" id="Path" stroke="#172133" stroke-width="0.5" stroke-linecap="round" stroke-linejoin="round"></path>
            <g id="ae0978ec-782b-424a-946e-7ea03993d910" transform="translate(88.000000, 47.000000)" fill="#FFFFFF" fill-rule="nonzero">
                <g id="a561f794-d053-4748-8eb7-03edb57b4f32">
                    <path d="M6.7556,6.1453 C6.36352323,6.1453 6.00364085,5.9283279 5.8206,5.5816 C5.56265397,5.07514061 5.76276532,4.45544817 6.2682,4.1955 C6.2782,4.1955 6.2782,4.1855 6.2882,4.1855 C6.43389927,4.11370828 6.59334199,4.07411192 6.7557,4.0694 C7.14780646,4.0694 7.50772552,4.28635628 7.6908,4.6331 C7.94874603,5.13955939 7.74863468,5.75925183 7.2432,6.0192 C7.2332,6.0192 7.2332,6.0292 7.2232,6.0292 C7.07889652,6.10483157 6.91852087,6.14465111 6.7556,6.1453 M5.5221,8.2542 L5.4658,8.2542 C4.88607245,8.23879897 4.42634227,7.76037856 4.43404347,7.18049761 C4.44174466,6.60061666 4.91401791,6.13457385 5.49395,6.13457385 C6.07388209,6.13457385 6.54615534,6.60061666 6.55385653,7.18049761 C6.56155773,7.76037856 6.10182755,8.23879897 5.5221,8.2542 M6.7621,10.3664 C6.27104649,10.3653642 5.84654361,10.0235341 5.7408,9.544 C5.68426137,9.27644537 5.73933984,8.99740523 5.8933,8.7714 C6.21638161,8.2940644 6.8619552,8.16289615 7.3457,8.4763 C7.57720323,8.62754424 7.73842453,8.86527002 7.7933,9.1363 C7.84886358,9.4038603 7.7938604,9.68251904 7.6408,9.9089 C7.44224647,10.1980943 7.11288077,10.3696179 6.7621,10.3665 M9.2357,10.3565 C8.84359354,10.3565 8.48367448,10.1395437 8.3006,9.7928 C8.17307003,9.54766213 8.15276079,9.26065377 8.2445,9 C8.33354998,8.7389528 8.52173977,8.52342718 8.7684,8.4 C8.91552494,8.32243023 9.07958413,8.28254065 9.2459,8.2839 C9.64078629,8.28370783 10.0022632,8.50548017 10.181,8.8576 C10.4388638,9.36406143 10.2387141,9.98368948 9.7333,10.2436 C9.7233,10.2436 9.7233,10.2536 9.7133,10.2536 C9.56301189,10.3206931 9.40038287,10.3557052 9.2358,10.3564 M10.4793,8.24421954 L10.4229,8.24421954 C10.052226,8.21985295 9.72309102,7.99855923 9.56066665,7.66447796 C9.39824228,7.33039668 9.42748767,6.9348648 9.63728065,6.62830505 C9.84707362,6.32174531 10.2051761,6.15126552 10.5754,6.1817 C10.8390421,6.19983678 11.0852494,6.31996325 11.2618,6.5166 C11.4525124,6.71631238 11.5500532,6.98725488 11.5304,7.2627 C11.4957747,7.81684777 11.0345183,8.24756145 10.4793,8.24421954 M9.2358,6.13530769 C8.85903083,6.13516349 8.51169374,5.93160841 8.32744522,5.60296346 C8.14319669,5.2743185 8.15075054,4.87180059 8.3472,4.5503 C8.3472,4.5403 8.3572,4.5403 8.3572,4.5303 C8.5532056,4.23701285 8.88314827,4.06147148 9.2359,4.06279251 C9.61268706,4.06290036 9.96005727,4.26644124 10.1443303,4.59509295 C10.3286034,4.92374466 10.3210588,5.32628414 10.1246,5.6478 C10.1246,5.6578 10.1146,5.6578 10.1146,5.6678 C9.91860685,5.96110092 9.58865619,6.13664654 9.2359,6.13530769 M5.7045,2.3053 C5.76742385,2.42516896 5.7796995,2.56525121 5.73858328,2.69423739 C5.69746706,2.82322356 5.60638695,2.93035966 5.4857,2.9917 C5.48304784,2.9917 5.4805043,2.99275357 5.47862893,2.99462893 C5.47675357,2.9965043 5.4757,2.99904784 5.4757,3.0017 C5.2171346,3.12901892 4.90419867,3.02764594 4.7694,2.7729 C4.70651129,2.6530136 4.69426545,2.51293173 4.73539846,2.38395183 C4.77653147,2.25497193 4.86761538,2.14784298 4.9883,2.0865 C4.99382285,2.0865 4.9983,2.08202285 4.9983,2.0765 C5.12220029,2.01260744 5.26648405,2.0008341 5.39910342,2.04379505 C5.5317228,2.08675599 5.64169739,2.1808942 5.7046,2.3053 M2.5213,6.709 C2.80185947,6.73504248 3.00990117,6.98094656 2.98910575,7.26194367 C2.96831033,7.54294078 2.72633663,7.7555411 2.445,7.74 C2.16024198,7.71893034 1.94648034,7.47100802 1.96755,7.18625 C1.98861966,6.90149198 2.23654198,6.68773034 2.5213,6.7088 L2.5213,6.7088 M4.8159,11.6262 C4.9776805,11.3885842 5.29829482,11.3212468 5.542,11.4737 C5.77782554,11.6267516 5.84972924,11.9392783 5.7045,12.18 C5.7045,12.1826522 5.70344643,12.1851957 5.70157107,12.1870711 C5.6996957,12.1889464 5.69715216,12.19 5.6945,12.19 C5.53271392,12.4276638 5.21206138,12.4950441 4.9683,12.3426 C4.73247446,12.1895484 4.66057076,11.8770217 4.8058,11.6363 C4.8158,11.6363 4.8158,11.6363 4.8158,11.6263 M10.2969,12.1337 C10.2340113,12.0138136 10.2217654,11.8737317 10.2628985,11.7447518 C10.3040315,11.6157719 10.3951154,11.508643 10.5158,11.4473 C10.5213228,11.4473 10.5258,11.4428228 10.5258,11.4373 C10.7843654,11.3099811 11.0973013,11.4113541 11.2321,11.6661 C11.2949887,11.7859864 11.3072346,11.9260683 11.2661015,12.0550482 C11.2249685,12.1840281 11.1338846,12.291157 11.0132,12.3525 C11.0105478,12.3525 11.0080043,12.3535536 11.0061289,12.3554289 C11.0042536,12.3573043 11.0032,12.3598478 11.0032,12.3625 C10.7445505,12.4886395 10.4324584,12.3875398 10.2969,12.1337 M13.4769,7.7202 C13.192142,7.69913034 12.9783803,7.45120802 12.99945,7.16645 C13.0205197,6.88169198 13.268442,6.66793034 13.5532,6.689 C13.8317092,6.71433243 14.0415885,6.95335314 14.0307,7.2328 C14.0253045,7.37212979 13.9629986,7.50314891 13.8583287,7.59526901 C13.7536588,7.68738911 13.6157865,7.73254704 13.4769,7.7202 L13.4769,7.7202 M11.1857,2.8 C11.0239139,3.03766379 10.7032614,3.10504409 10.4595,2.9526 C10.3452884,2.87943838 10.2649703,2.76374903 10.2363444,2.63116896 C10.2077185,2.49858889 10.2331489,2.36006698 10.307,2.2463 C10.307,2.24077715 10.3114772,2.2363 10.317,2.2363 C10.4788485,1.99871727 10.7994543,1.93139095 11.0432,2.0838 C11.2789333,2.23691614 11.3508181,2.54936054 11.2057,2.7901 L11.1857,2.8001 M4.5572,0.7178 C4.59780292,0.796036736 4.60558556,0.887219933 4.57882862,0.971205946 C4.55207168,1.05519196 4.49297721,1.12506891 4.4146,1.1654 C4.40907715,1.1654 4.4046,1.16987715 4.4046,1.1754 C4.32394915,1.21738888 4.22971238,1.22485527 4.14345571,1.19609048 C4.05719904,1.16732569 3.98630585,1.10479193 3.947,1.0228 C3.90639708,0.944563264 3.89861444,0.853380067 3.92537138,0.769394054 C3.95212832,0.685408042 4.01122279,0.615531092 4.0896,0.5752 L4.0996,0.5752 C4.26539827,0.488854916 4.46980429,0.552553122 4.5572,0.7178 M0.5549,6.898 C0.674583985,6.90157264 0.783270566,6.96872454 0.840018552,7.07416024 C0.896766538,7.17959594 0.892954559,7.30729723 0.830018551,7.40916027 C0.767082543,7.51102331 0.654583984,7.57157267 0.534898645,7.568 L0.5149,7.568 C0.329884609,7.56247715 0.184377153,7.40801539 0.1899,7.223 C0.195422847,7.03798461 0.349884609,6.89247715 0.534898645,6.898 L0.5549,6.898 M3.9935,13.3938 C4.09731343,13.2399727 4.30499357,13.1972464 4.4611,13.2976 C4.6129921,13.3926754 4.66027041,13.5921712 4.5672,13.7453 L4.5572,13.7553 C4.45342394,13.9091144 4.24577548,13.9518434 4.0897,13.8515 C4.01612376,13.8036904 3.96461746,13.728547 3.94656562,13.6426788 C3.92851378,13.5568106 3.94540292,13.4672886 3.9935,13.3939 L3.9935,13.3939 M11.4443,13.7188 C11.4036971,13.6405633 11.3959144,13.5493801 11.4226714,13.4653941 C11.4494283,13.381408 11.5085228,13.3115311 11.5869,13.2712 L11.5969,13.2712 C11.7628545,13.1866506 11.9659556,13.2499421 12.0545,13.4138 C12.0951029,13.4920367 12.1028856,13.5832199 12.0761286,13.6672059 C12.0493717,13.751192 11.9902772,13.8210689 11.9119,13.8614 L11.9019,13.8614 C11.7361017,13.9477451 11.5316957,13.8840469 11.4443,13.7188 M15.4466,7.538 C15.3287024,7.52906837 15.2245254,7.45791755 15.1733116,7.35134937 C15.1220978,7.24478119 15.1316278,7.1189859 15.1983116,7.02134936 C15.2649955,6.92371282 15.3787024,6.86906835 15.4966,6.878 C15.6144976,6.88693163 15.7186746,6.95808245 15.7698884,7.06465063 C15.8211022,7.17121881 15.8115722,7.2970141 15.7448884,7.39465064 C15.6782045,7.49228718 15.5644976,7.54693165 15.4466,7.538 M12.008,1.0356 C11.9059289,1.18839372 11.7007312,1.23208959 11.545265,1.13413719 C11.3897988,1.03618479 11.3406362,0.832227748 11.4344,0.6742 L11.4344,0.6642 C11.5380698,0.508609764 11.7475367,0.46522777 11.9044757,0.566844157 C12.0614147,0.668460544 12.1075454,0.877339255 12.008,1.0356 L12.008,1.0356 M4.6633,4.6366 C4.94114179,4.8169325 5.02617386,5.18496264 4.8556,5.4689 L4.8456,5.4789 C4.65200111,5.75754727 4.27294027,5.83364193 3.9868,5.6513 C3.70699383,5.47155976 3.62540946,5.09928634 3.8044,4.819 L3.8144,4.809 C3.90328456,4.6726012 4.0431589,4.57754752 4.20270141,4.545124 C4.36224392,4.51270048 4.52812519,4.54561604 4.6632,4.6365 M4.05,8.7714 C4.354038,8.61614709 4.72637307,8.73630712 4.8823,9.04 C4.95450463,9.18333379 4.96676712,9.34949214 4.91638624,9.50187275 C4.86600535,9.65425336 4.75711422,9.78035526 4.6137,9.8524 C4.61104784,9.8524 4.6085043,9.85345357 4.60662893,9.85532893 C4.60475357,9.8572043 4.6037,9.85974784 4.6037,9.8624 C4.29927565,10.0126156 3.93058501,9.89363169 3.7714,9.5938 C3.69919537,9.45046621 3.68693288,9.28430786 3.73731376,9.13192725 C3.78769465,8.97954664 3.89658578,8.85344474 4.04,8.7814 C4.04,8.77874784 4.04105357,8.7762043 4.04292893,8.77432893 C4.0448043,8.77245357 4.04734784,8.7714 4.05,8.7714 M7.346,11.3514 C7.35539919,11.1019407 7.51414477,10.8827073 7.74821282,10.7959293 C7.98228088,10.7091514 8.24557488,10.7719187 8.41531944,10.9549626 C8.58506401,11.1380064 8.62783024,11.4052788 8.52367602,11.6321491 C8.4195218,11.8590195 8.18895889,12.0008088 7.9395,11.9914 L7.9295,11.9914 C7.59317911,11.9725082 7.33377304,11.6880327 7.3459,11.3514 M11.3382,9.8029 C11.0593653,9.62248518 10.977974,9.2510928 11.1558,8.9706 C11.1558,8.96507715 11.1602772,8.9606 11.1658,8.9606 C11.3593677,8.68191819 11.7384343,8.60577824 12.0246,8.7881 C12.3043573,8.9678742 12.385932,9.34010323 12.207,9.6204 L12.197,9.6304 C12.0037995,9.90965356 11.6242067,9.98585499 11.3382,9.8028 M11.9516,5.6679 C11.6471757,5.8181156 11.278485,5.69913169 11.1193,5.3993 C11.0453601,5.2573573 11.0310897,5.09178538 11.079652,4.93928441 C11.1282143,4.78678343 11.2355977,4.65995086 11.378,4.5869 C11.3835228,4.5869 11.388,4.58242285 11.388,4.5769 C11.6923941,4.4266125 12.0611163,4.5455623 12.2203,4.8454 C12.2925595,4.98872443 12.3048511,5.15490272 12.2544651,5.30729882 C12.2040791,5.45969492 12.0951527,5.58579545 11.9517,5.6578 C11.9584,5.6578 11.9517,5.6678 11.9517,5.6678 M8.606,3.0778 C8.59660081,3.32725926 8.43785523,3.54649272 8.20378718,3.63327066 C7.96971912,3.7200486 7.70642512,3.65728129 7.53668056,3.47423744 C7.36693599,3.2911936 7.32416976,3.02392124 7.42832398,2.79705087 C7.5324782,2.5701805 7.76304111,2.42839117 8.0125,2.4378 L8.0225,2.4378 C8.18505501,2.44444867 8.3382,2.51583084 8.44782088,2.63604565 C8.55744176,2.75626046 8.61443321,2.91532263 8.6061,3.0778 M2.359,3.5354 C2.4527724,3.59377206 2.51945813,3.68706418 2.54433635,3.79468218 C2.56921457,3.90230018 2.55023954,4.01539464 2.4916,4.109 L2.4816,4.119 C2.34754738,4.31521151 2.0819196,4.3695324 1.8816,4.2417 C1.78782088,4.18330899 1.7211332,4.08999917 1.69625555,3.98236489 C1.67137791,3.87473062 1.69035557,3.76162086 1.749,3.668 L1.759,3.658 C1.89665401,3.46728375 2.15752549,3.41393553 2.359,3.5353 M1.941,10.184 C2.1555604,10.0802308 2.41375556,10.1653078 2.5246,10.3763 C2.62873694,10.5824209 2.54734617,10.8339558 2.3422,10.94 L2.3322,10.94 C2.1176396,11.0437692 1.85944444,10.9586922 1.7486,10.7477 C1.69639241,10.6479466 1.68741513,10.5311374 1.72376672,10.4245779 C1.76011831,10.3180184 1.83861241,10.231049 1.9409,10.184 L1.9409,10.184 M7.5381,13.8613 C7.54544726,13.6213905 7.74588783,13.4328611 7.98579741,13.440207 C8.225707,13.447553 8.41423747,13.6479925 8.40689282,13.8879022 C8.39954818,14.1278118 8.19910967,14.3163433 7.9592,14.309 L7.9492,14.309 C7.71405398,14.2946013 7.53239721,14.0968198 7.538,13.8613 M13.6392,10.8903 C13.5454276,10.8319279 13.4787419,10.7386358 13.4538637,10.6310178 C13.4289854,10.5233998 13.4479605,10.4103054 13.5066,10.3167 L13.5166,10.3067 C13.6506526,10.1104885 13.9162804,10.0561676 14.1166,10.184 C14.2103791,10.242391 14.2770668,10.3357008 14.3019444,10.4433351 C14.3268221,10.5509694 14.3078444,10.6640791 14.2492,10.7577 L14.2392,10.7677 C14.1765792,10.8643476 14.0777537,10.9317835 13.9649274,10.9548565 C13.8521012,10.9779295 13.7347356,10.9547046 13.6392,10.8904 M14.0603,4.252 C13.8457396,4.35576923 13.5875444,4.27069224 13.4767,4.0597 C13.4243301,3.96108937 13.4141718,3.84546112 13.4485457,3.73922978 C13.4829197,3.63299843 13.5588894,3.54523916 13.6591,3.496 L13.6691,3.496 C13.8836604,3.39223077 14.1418556,3.47730776 14.2527,3.6883 C14.3022606,3.78851299 14.3098216,3.90435 14.2737086,4.01015521 C14.2375956,4.11596041 14.1607889,4.20300134 14.0603,4.252 L14.0603,4.252 M8.4167,0.5747 C8.41350966,0.754138617 8.30057094,0.913245389 8.13223135,0.975456158 C7.96389177,1.03766693 7.77462773,0.99024076 7.65551544,0.855999717 C7.53640314,0.721758673 7.51183713,0.528195685 7.59363886,0.36845567 C7.67544059,0.208715654 7.84685685,0.1155138 8.0254,0.1337 C8.25143753,0.155067031 8.42238412,0.34772598 8.4167,0.5747" id="ad364dd7-8b36-48b3-8cd9-f328930b0782"></path>
                </g>
            </g>
            <line x1="85.4921" y1="85.8295" x2="74.03" y2="96.0865" id="Path" stroke="#172133" stroke-width="0.5" stroke-linecap="round" stroke-linejoin="round"></line>
            <polyline id="Path" stroke="#172133" stroke-width="0.5" stroke-linecap="round" stroke-linejoin="round" points="73.824 71.175 69.469 75.978 69.469 92.27"></polyline>
            <path d="M114.85,92.5912 L122.3624,99.3243 C122.520611,99.4660928 122.747403,99.5016115 122.941389,99.4149777 C123.135376,99.3283439 123.2603,99.1357525 123.2603,98.9233 L123.2603,96.2011" id="Path" stroke="#172133" stroke-width="0.5" stroke-linecap="round" stroke-linejoin="round"></path>
            <line x1="113.258" y1="65.4965" x2="118.2074" y2="70.7204" id="Path" stroke="#172133" stroke-width="0.5" stroke-linecap="round" stroke-linejoin="round"></line>
            <path d="M48.954,81.67 C48.278699,81.6693718 47.6492552,81.3282227 47.2800844,80.762763 C46.9109135,80.1973032 46.8518074,79.4837987 47.1229,78.8653 L52.329,66.9946 C52.7728713,65.9828144 53.9529143,65.5224288 54.9647,65.9663 C55.9764856,66.4101713 56.4368712,67.5902143 55.993,68.602 L50.787,80.4731 C50.4675979,81.2004154 49.7483585,81.67 48.954,81.67 Z" id="Path" fill="#7054D3" fill-rule="nonzero"></path>
            <path d="M61.3807,81.6694004 C60.5334314,81.6699631 59.7777439,81.1365935 59.4944668,80.3380834 C59.2111897,79.5395732 59.4617991,78.6492128 60.12,78.1157 L64.9432,74.2065 L60.0438,69.8065 C59.5042948,69.3312368 59.2614102,68.6029604 59.4076376,67.8990012 C59.5538649,67.1950421 60.0666988,66.6237445 60.75085,66.4026608 C61.4350013,66.1815772 62.1851742,66.3447338 62.7157,66.83 L69.3592,72.7968 C69.7946417,73.1879653 70.0369646,73.7501867 70.0223261,74.3353409 C70.0076876,74.9204952 69.7375559,75.4698968 69.2831,75.8388 L62.64,81.2231 C62.2839073,81.5120078 61.8392517,81.6695952 61.3807,81.6694004 L61.3807,81.6694004 Z" id="Path" fill="#0A60DD" fill-rule="nonzero"></path>
            <path d="M41.7362,81.6694023 C41.278017,81.6701013 40.8336704,81.5124356 40.4784,81.2231 L33.8338,75.8384 C33.3789382,75.4698198 33.1084125,74.9204451 33.0935789,74.335184 C33.0787454,73.7499228 33.3210937,73.1875493 33.7567,72.7964 L40.4012,66.83 C40.9317258,66.3447338 41.6818987,66.1815772 42.36605,66.4026608 C43.0502012,66.6237445 43.5630351,67.1950421 43.7092624,67.8990012 C43.8554898,68.6029604 43.6126052,69.3312368 43.0731,69.8065 L38.1731,74.2065 L42.9963,78.1157 C43.6544009,78.649132 43.9050441,79.5393147 43.6219497,80.3377532 C43.3388553,81.1361917 42.5834401,81.6696663 41.7363,81.6694023 L41.7362,81.6694023 Z" id="Path" fill="#0A60DD" fill-rule="nonzero"></path>
        </g>
    </g>
</svg>