<?xml version="1.0" encoding="UTF-8"?>
<svg width="150px" height="132px" viewBox="0 0 150 132" version="1.1" xmlns="http://www.w3.org/2000/svg" xmlns:xlink="http://www.w3.org/1999/xlink">
    <title>plan_starter</title>
    <g id="Page-1" stroke="none" stroke-width="1" fill="none" fill-rule="evenodd">
        <g id="plan_starter">
            <rect id="bg-area" x="0" y="0" width="150" height="132"></rect>
            <rect id="Rectangle" stroke="#D0DBE1" stroke-width="0.5" fill="#E8F0FC" fill-rule="nonzero" transform="translate(75.475189, 70.486706) rotate(-179.999900) translate(-75.475189, -70.486706) " x="33.4242387" y="28.4357561" width="84.1019" height="84.1019"></rect>
            <rect id="Rectangle" stroke="#C6D5E0" stroke-width="0.5" transform="translate(20.320827, 35.368502) rotate(-179.999900) translate(-20.320827, -35.368502) " x="16.0038774" y="31.0515523" width="8.6339" height="8.6339"></rect>
            <rect id="Rectangle" fill="#E8F0FC" fill-rule="nonzero" transform="translate(129.893997, 75.193811) rotate(-179.999900) translate(-129.893997, -75.193811) " x="125.577047" y="70.8768611" width="8.6339" height="8.6339"></rect>
            <rect id="Rectangle" stroke="#172133" stroke-width="0.5" fill="#FFFFFF" fill-rule="nonzero" x="14.4726" y="65.9113" width="54.5363" height="37.4284" rx="0.5"></rect>
            <rect id="Rectangle" stroke="#172133" stroke-width="0.5" fill="#FFFFFF" fill-rule="nonzero" x="14.4726" y="65.9113" width="54.5363" height="4.1803" rx="0.5"></rect>
            <rect id="Rectangle" stroke="#172133" stroke-width="0.5" fill="#0A60DD" fill-rule="nonzero" x="17.2612" y="81.7155" width="19.5733" height="3.4451" rx="1.72255"></rect>
            <rect id="Rectangle" stroke="#172133" stroke-width="0.5" fill="#0A60DD" fill-rule="nonzero" x="17.2612" y="95.0288" width="19.5733" height="3.4451" rx="1.72255"></rect>
            <rect id="Rectangle" stroke="#172133" stroke-width="0.5" fill="#FFFFFF" fill-rule="nonzero" x="17.2612" y="74.9887" width="19.5733" height="3.4451" rx="1.72255"></rect>
            <rect id="Rectangle" stroke="#172133" stroke-width="0.5" fill="#FFFFFF" fill-rule="nonzero" x="17.2612" y="88.4422" width="19.5733" height="3.4451" rx="1.72255"></rect>
            <path d="M77.9242,10.6657 C61.7827,10.6657 46.3585,20.5157 46.3585,43.1142 C46.3585,65.7127 77.9242,84.1471 77.9242,84.1471 C77.9242,84.1471 109.49,65.7125 109.49,43.1142 C109.49,20.5159 94.0659,10.6657 77.9242,10.6657 Z" id="Path" stroke="#172133" stroke-width="0.5" fill="#FFFFFF" fill-rule="nonzero"></path>
            <path d="M96.033,25.5189 C91.8592461,20.9822908 86.1453995,18.1628899 80.0057,17.6105" id="Path" stroke="#172133" stroke-width="0.5" stroke-linecap="round" stroke-linejoin="round"></path>
            <path d="M102.2105,43.9021 C102.277625,39.8400469 101.545509,35.8044228 100.0558,32.0248" id="Path" stroke="#172133" stroke-width="0.5" stroke-linecap="round" stroke-linejoin="round"></path>
            <path d="M77.9758,84.1471 L73.2838,89.3823 C73.1891953,89.4880712 73.1655533,89.6395505 73.2234275,89.7691197 C73.2813018,89.8986889 73.409893,89.9821707 73.5518,89.9823002 L82.0418,89.9823002 C82.1814404,89.9824367 82.3085634,89.9018081 82.367961,89.7754302 C82.4273587,89.6490523 82.4083148,89.4997252 82.3191,89.3923 L77.9758,84.1471 Z" id="Path" stroke="#172133" stroke-width="0.5" fill="#51BCEF" fill-rule="nonzero"></path>
            <path d="M82.7618,100.1367 L75.0241,100.1367 C74.3472063,100.1367 73.6980289,100.405557 73.2193928,100.884193 C72.7407567,101.362829 72.4719,102.012006 72.4719,102.6889 L72.4719,102.6889 C72.4719,103.365776 72.7407949,104.014928 73.2194281,104.493543 C73.6980614,104.972157 74.3472237,105.241027 75.0241,105.241 L79.8506,105.241 C81.2601183,105.241055 82.4027448,106.383682 82.4028,107.7932 L82.4028,122.6562" id="Path" stroke="#172133" stroke-width="0.5" stroke-linecap="round" stroke-linejoin="round"></path>
            <path d="M77.797,89.9825 L77.797,91.9825 C77.797,93.3919859 78.9396141,94.5346 80.3491,94.5346 L86.8332,94.5346 C88.2427183,94.5346552 89.3854,95.6772817 89.3854,97.0868 L89.3854,97.5843 C89.3854,98.9938411 88.2427411,100.1365 86.8332,100.1365" id="Path" stroke="#172133" stroke-width="0.5" stroke-linecap="round" stroke-linejoin="round"></path>
            <g id="fbed0559-9943-4185-94ec-571422b4b97c" transform="translate(62.000000, 29.000000)" fill="#7054D3" fill-rule="nonzero">
                <g id="e7ff4d08-1c28-4bbb-ad3f-072d82686f18">
                    <path d="M13.3989,12.7122 C12.6004499,12.7122 11.867546,12.2704041 11.4948,11.5643 C10.9696084,10.5329876 11.3771654,9.27115216 12.4064,8.7419 C12.4264,8.7419 12.4264,8.7219 12.4464,8.7219 C12.7430912,8.57569392 13.0677788,8.49506771 13.3984,8.4855 C14.1968501,8.4855 14.929754,8.92729591 15.3025,9.6334 C15.8277064,10.6646859 15.4201971,11.9265119 14.391,12.4558 C14.371,12.4558 14.371,12.4758 14.351,12.4758 C14.0571513,12.6297161 13.7306159,12.7107584 13.3989,12.7121 M10.8871,17.0065 L10.7723,17.0065 C9.59169449,16.9750965 8.65548769,16.0007794 8.67119083,14.8198607 C8.68689396,13.638942 9.64867691,12.6898633 10.8297,12.6898633 C12.0107231,12.6898633 12.972506,13.638942 12.9882092,14.8198607 C13.0039123,16.0007794 12.0677055,16.9750965 10.8871,17.0065 M13.4124,21.3076 C12.412425,21.3055644 11.5479001,20.6095803 11.3324,19.6331 C11.2172576,19.0882525 11.3294391,18.5200131 11.643,18.0598 C12.3007506,17.0876733 13.6154246,16.820551 14.6004,17.4589 C15.0718516,17.7667478 15.40021,18.2507487 15.512,18.8026 C15.6250819,19.3474274 15.5130585,19.9148299 15.2014,20.3758 C14.7970236,20.9646688 14.1263155,21.3139288 13.412,21.3076 M18.4492,21.2876 C17.6509412,21.2875208 16.9182272,20.8458449 16.5454,20.14 C16.2856449,19.6410739 16.2441214,19.0568491 16.4307,18.5262 C16.6119261,17.9944955 16.9951479,17.555486 17.4975,17.3041 C17.7971068,17.1462319 18.1311571,17.065047 18.4698,17.0678 C19.273899,17.067275 20.0100073,17.5188522 20.3739,18.2359 C20.8991064,19.2671859 20.4915971,20.5290119 19.4624,21.0583 C19.4424,21.0583 19.4424,21.0783 19.4219,21.0783 C19.1158851,21.2149453 18.7847343,21.2862638 18.4496,21.2877 M20.9816,16.9865 L20.8668,16.9865 C20.1165422,16.9310167 19.4528755,16.4794902 19.1257966,15.8020063 C18.7987177,15.1245223 18.8579177,14.3240068 19.2810966,13.7020062 C19.7042755,13.0800056 20.4271422,12.7310166 21.1774,12.7865 C21.7142741,12.8233758 22.2156458,13.0680174 22.5751,13.4685 C22.9634058,13.8751692 23.1620386,14.426838 23.1221,14.9877 C23.0515257,16.1161328 22.1122167,16.9931722 20.9816,16.9863 M18.45,12.692 C17.6827175,12.6918152 16.9753228,12.2773647 16.6000245,11.6081311 C16.2247262,10.9388975 16.240012,10.1191763 16.64,9.4644 C16.64,9.4444 16.66,9.4444 16.66,9.4244 C17.0591676,8.8271557 17.7310487,8.46966264 18.4494,8.47228551 C19.2166825,8.47248484 19.9240772,8.88693527 20.2993755,9.55616887 C20.6746738,10.2254025 20.659388,11.0451237 20.2594,11.6999 C20.2594,11.7199 20.2394,11.7199 20.2394,11.7404 C19.840277,12.3376422 19.1684248,12.6951398 18.4501,12.6925145 M11.259,4.8937 C11.3871351,5.13780322 11.4121166,5.42307108 11.3283596,5.68573009 C11.2446026,5.9483891 11.0590921,6.16653506 10.8133,6.2914 C10.8022543,6.2914 10.7933,6.30035431 10.7933,6.3114 C10.2668001,6.5707145 9.62954001,6.36427624 9.3551,5.8455 C9.22683864,5.60146058 9.20170101,5.31620594 9.28530587,5.05349613 C9.36891073,4.79078632 9.55428721,4.57252576 9.8,4.4475 C9.81104569,4.4475 9.82,4.43854569 9.82,4.4275 C10.0722995,4.29744038 10.3660826,4.27348986 10.6361167,4.36096648 C10.9061508,4.4484431 11.1300863,4.6401068 11.2582,4.8934 M4.7764,13.86 C5.35629899,13.9028849 5.79163491,14.407751 5.74875,14.98765 C5.70586509,15.567549 5.20099899,16.0028849 4.6211,15.96 C4.04120101,15.9171151 3.60586509,15.412249 3.64875,14.83235 C3.69163491,14.252451 4.19650101,13.8171151 4.7764,13.86 L4.7764,13.86 M9.4489,23.8735 C9.77843851,23.3897098 10.4312602,23.252585 10.9276,23.5629 C11.4077503,23.8745837 11.5541578,24.510919 11.2585,25.0011 C11.2585,25.0121457 11.2495457,25.0211 11.2385,25.0211 C10.9089615,25.5048902 10.2561398,25.642015 9.7598,25.3317 C9.27963892,25.0200164 9.13326767,24.3836466 9.429,23.8935 C9.449,23.8935 9.449,23.8935 9.449,23.8735 M20.61,24.9066 C20.4818855,24.6625039 20.4569043,24.3772557 20.5406394,24.1146064 C20.6243745,23.8519571 20.8098451,23.633803 21.0556,23.5089 C21.0666457,23.5089 21.0756,23.4999457 21.0756,23.4889 C21.6020999,23.2295855 22.23936,23.4360238 22.5138,23.9548 C22.6419072,24.1989084 22.6668736,24.4841662 22.5831192,24.7468172 C22.4993648,25.0094682 22.3138723,25.2276147 22.0681,25.3525 C22.0570543,25.3525 22.0481,25.3614543 22.0481,25.3725 C21.5214396,25.6295661 20.8857885,25.4236491 20.6099,24.9066 M27.0856,15.92 C26.505701,15.8771151 26.0703651,15.372249 26.11325,14.79235 C26.1561349,14.212451 26.661001,13.7771151 27.2409,13.82 C27.8080177,13.8715637 28.2353905,14.3582755 28.2132,14.9273 C28.2022344,15.2110147 28.075386,15.4778161 27.8622677,15.6654191 C27.6491495,15.8530221 27.3684143,15.9450071 27.0856,15.9199 L27.0856,15.9199 M22.42,5.8993 C22.0904615,6.38309024 21.4376398,6.52021502 20.9413,6.2099 C20.7087692,6.06087492 20.545247,5.82529359 20.4869485,5.55532999 C20.42865,5.28536639 20.4803865,5.00330007 20.6307,4.7716 C20.6307,4.76055431 20.6396543,4.7516 20.6507,4.7516 C20.9802385,4.26780976 21.6330602,4.13068498 22.1294,4.441 C22.6093719,4.7527374 22.7556383,5.38894777 22.46,5.879 L22.4195,5.899 M8.9219,1.659 C9.00466164,1.81826575 9.02059453,2.00393236 8.96617772,2.17497001 C8.91176092,2.34600766 8.79147444,2.48833515 8.6319,2.5705 C8.62659567,2.5705 8.62150859,2.57260714 8.61775786,2.57635786 C8.61400714,2.58010859 8.6119,2.58519567 8.6119,2.5905 C8.44769598,2.67607097 8.25579443,2.69133845 8.08012581,2.63280737 C7.90445718,2.5742763 7.76006364,2.44695858 7.68,2.28 C7.59726582,2.12072923 7.58134767,1.93507246 7.63576199,1.76404262 C7.69017631,1.59301279 7.81044506,1.45068482 7.97,1.3685 L7.99,1.3685 C8.32754241,1.19295324 8.74349278,1.32240764 8.9218,1.6585 M0.7718,14.2446 C1.01748088,14.2489369 1.24185343,14.3850421 1.35920974,14.6009249 C1.47656605,14.8168077 1.46877692,15.0791186 1.33881772,15.2876576 C1.20885852,15.4961966 0.976805332,15.6187486 0.7313,15.6085 L0.6907,15.6085 C0.4450499,15.6041009 0.220734165,15.4679704 0.103420954,15.2520979 C-0.0138922561,15.0362254 -0.0060849678,14.7739505 0.123861147,14.5654383 C0.253807261,14.3569261 0.485823189,14.2343795 0.7313,14.2446 L0.7718,14.2446 M7.7738,27.4721 C7.98515369,27.1589198 8.40796372,27.0719151 8.7258,27.2762 C9.03512597,27.4697539 9.13142663,27.8759903 8.9419,28.1878 L8.9219,28.2078 C8.71054631,28.5209802 8.28773628,28.6079849 7.9699,28.4037 C7.81992764,28.3064707 7.71492829,28.1534413 7.67817378,27.9785289 C7.64141927,27.8036165 7.67594545,27.6212684 7.7741,27.4719 L7.7741,27.4719 M22.9462,28.1336 C22.8634889,27.9743093 22.8475829,27.7886476 22.9019939,27.6176094 C22.9564049,27.4465711 23.0766576,27.3042245 23.2362,27.222 L23.2562,27.222 C23.5940393,27.049863 24.0075133,27.1785467 24.188,27.512 C24.2707342,27.6712708 24.2866523,27.8569275 24.232238,28.0279574 C24.1778237,28.1989872 24.0575549,28.3413152 23.898,28.4235 L23.878,28.4235 C23.5404471,28.5989295 23.1245824,28.4695017 22.9462,28.1335 M31.0962,15.5474 C30.72844,15.5154694 30.4548392,15.1935712 30.4825897,14.8254722 C30.5103403,14.4573732 30.8291095,14.180133 31.1975,14.2037 C31.56526,14.2356306 31.8388608,14.5575288 31.8111103,14.9256278 C31.7833597,15.2937268 31.4645905,15.570967 31.0962,15.5474 M24.0942,2.3064 C23.8863883,2.61772997 23.4683791,2.70682808 23.1516782,2.50729727 C22.8349772,2.30776645 22.7348888,1.89225172 22.926,1.5704 L22.926,1.5504 C23.1377768,1.2353047 23.5630216,1.14809577 23.8817267,1.35440017 C24.2004318,1.56070458 24.2949705,1.98438011 24.0942,2.3066 L24.0942,2.3066 M9.1383,9.64 C9.7039388,10.0072951 9.87707096,10.7565913 9.5299,11.3348 L9.5099,11.3548 C9.11566931,11.9222137 8.34378894,12.0771812 7.7611,11.7059 C7.19129702,11.3399225 7.02516765,10.5818286 7.3897,10.0111 L7.4097,9.9911 C7.59074556,9.71338059 7.87559847,9.51986172 8.200484,9.45386963 C8.52536954,9.38787755 8.86314967,9.45492465 9.1382,9.64 M7.8891,18.06 C8.50819064,17.7434743 9.26666399,17.988273 9.5839,18.607 C9.73091205,18.8988652 9.75586666,19.2372011 9.65326669,19.5474769 C9.55066672,19.8577527 9.32892925,20.1145141 9.0369,20.2612 C9.02585431,20.2612 9.0169,20.2701543 9.0169,20.2812 C8.39702477,20.5871904 7.64619682,20.3449035 7.3221,19.7343 C7.17504912,19.4424369 7.15006252,19.104086 7.25264489,18.793788 C7.35522725,18.4834899 7.57696211,18.2267034 7.869,18.08 C7.869,18.0689543 7.87795431,18.06 7.889,18.06 M14.6006,23.3132 C14.6266432,22.6196615 15.2099175,22.0785139 15.9034605,22.1044382 C16.5970034,22.1303624 17.138251,22.7135439 17.1124458,23.4070913 C17.0866405,24.1006387 16.5035518,24.6419863 15.81,24.6163 L15.79,24.6163 C15.1051915,24.5777652 14.5770004,23.9985505 14.6016,23.3131 M22.73,20.16 C22.162224,19.7926067 21.9965366,19.0363262 22.3587,18.4652 C22.3587,18.4541543 22.3676543,18.4452 22.3787,18.4452 C22.7729307,17.8777863 23.5448111,17.7228188 24.1275,18.0941 C24.6974432,18.4597011 24.8640539,19.2175673 24.5,19.7885 L24.48,19.8085 C24.0865866,20.3779372 23.3127813,20.5333615 22.73,20.16 M23.98,11.74 C23.3601248,12.0459904 22.6092968,11.8037035 22.2852,11.1931 C22.1346218,10.904073 22.1055454,10.5669236 22.2044159,10.2563838 C22.3032863,9.94584388 22.5219362,9.68756616 22.8119,9.5388 C22.8229457,9.5388 22.8319,9.52984569 22.8319,9.5188 C23.4518055,9.21288148 24.2026018,9.45520246 24.5267,10.0658 C24.673761,10.3576238 24.6987744,10.6959407 24.5962299,11.0062191 C24.4936853,11.3164975 24.2719959,11.573281 23.98,11.72 C23.9935,11.72 23.98,11.74 23.98,11.74 M17.167,6.4665 C17.1479126,6.97448086 16.824698,7.42094215 16.3480761,7.59769193 C15.8714543,7.77444172 15.3352921,7.64667055 14.9896104,7.27396014 C14.6439287,6.90124973 14.5568068,6.35700239 14.7688709,5.89500924 C14.9809351,5.43301609 15.450421,5.14426297 15.9584,5.1634 L15.9784,5.1634 C16.3093828,5.1769302 16.6212082,5.32226761 16.8444138,5.56703677 C17.0676194,5.81180594 17.1836649,6.13567547 17.1667,6.4665 M4.4456,7.3983 C4.63657285,7.51718651 4.77237777,7.70719044 4.82303497,7.92636727 C4.87369217,8.14554409 4.83503598,8.37587031 4.7156,8.5665 L4.6956,8.5865 C4.42304952,8.98694885 3.88130302,9.09776265 3.4734,8.8365 C3.2824692,8.71757692 3.14669963,8.52757488 3.09604611,8.308414 C3.0453926,8.08925312 3.08401785,7.8589441 3.2034,7.6683 L3.2234,7.6483 C3.50373837,7.2597907 4.03511496,7.15108916 4.4455,7.3983 M3.5948,20.9365 C4.03172422,20.725277 4.55743604,20.8985088 4.7832,21.3281 C4.99521136,21.7478332 4.82949861,22.2600078 4.4118,22.476 L4.3918,22.476 C3.95484965,22.6872078 3.42912882,22.5139287 3.2034,22.0843 C3.09714418,21.8811586 3.07890642,21.6433133 3.15294873,21.4263468 C3.22699105,21.2093804 3.38682553,21.0323043 3.5951,20.9365 L3.5951,20.9365 M14.9927,28.4246 C15.007618,27.9360588 15.41575,27.5521101 15.9042913,27.5670237 C16.3928326,27.5819372 16.7767851,27.9900658 16.7618759,28.4786072 C16.7469667,28.9671487 16.3388416,29.3511048 15.8503,29.3362 L15.8303,29.3362 C15.3515744,29.3067171 14.9817737,28.9041012 14.993,28.4246 M27.417,22.3746 C27.2260271,22.2557135 27.0902222,22.0657096 27.039565,21.8465327 C26.9889078,21.6273559 27.027564,21.3970297 27.147,21.2064 L27.167,21.1864 C27.4395505,20.7859511 27.981297,20.6751373 28.3892,20.9364 C28.5801661,21.0552675 28.7159691,21.2452538 28.7666269,21.4644143 C28.8172846,21.6835749 28.7786311,21.9138858 28.6592,22.1045 L28.6392,22.1245 C28.5117213,22.3214653 28.3104127,22.4589145 28.080553,22.5059321 C27.8506932,22.5529498 27.6115817,22.5055882 27.417,22.3745 M28.2746,8.8566 C27.8376758,9.06782304 27.311964,8.89459117 27.0862,8.465 C26.9795529,8.26419677 26.9588618,8.0287384 27.0288533,7.81241289 C27.0988449,7.59608738 27.2535399,7.41737474 27.4576,7.3171 L27.4776,7.3171 C27.9145242,7.10587696 28.440236,7.27910883 28.666,7.7087 C28.7669853,7.9127384 28.7824367,8.14862348 28.7089309,8.36409177 C28.635425,8.57956006 28.479031,8.75682097 28.2744,8.8566 L28.2744,8.8566 M16.7818,1.3686 C16.7752257,1.73391827 16.5452389,2.05780047 16.2024987,2.18440937 C15.8597585,2.31101826 15.4744484,2.21442794 15.2319618,1.94111322 C14.9894753,1.6677985 14.9394667,1.2737265 15.1059979,0.948506561 C15.2725292,0.623286619 15.6214993,0.433514569 15.985,0.4705 C16.4452873,0.514067867 16.7933669,0.906400116 16.7818,1.3686" id="e81f8917-3cbe-42e6-979d-35df27fe9ce5"></path>
                </g>
            </g>
            <circle id="Oval" stroke="#172133" stroke-width="0.5" fill="#FFFFFF" fill-rule="nonzero" cx="58.2572" cy="82.7608" r="7.1462"></circle>
            <path d="M53.9721,81.3828 C54.3577776,79.398364 56.104516,77.9716724 58.126,77.99" id="Path" stroke="#172133" stroke-width="0.5" stroke-linecap="round" stroke-linejoin="round"></path>
            <path d="M47.6359,96.444 L47.6359,96.444 C47.3683518,96.2196787 47.2009788,95.8981794 47.1706661,95.5503529 C47.1403535,95.2025265 47.2495891,94.8569211 47.4743,94.5897 L51.1443,90.226 C51.6112763,89.6708046 52.439643,89.5986307 52.9956,90.0647 L52.9956,90.0647 C53.2631482,90.2890213 53.4305212,90.6105206 53.4608339,90.9583471 C53.4911465,91.3061735 53.3819109,91.6517789 53.1572,91.919 L49.4872,96.2827 C49.0202237,96.8378954 48.191857,96.9100693 47.6359,96.444 L47.6359,96.444 Z" id="Path" stroke="#172133" stroke-width="0.5" fill="#51BCEF" fill-rule="nonzero"></path>
            <line x1="53.0136" y1="90.0795" x2="54.1719" y2="88.6685" id="Path" stroke="#172133" stroke-width="0.5" fill="#FFFFFF" fill-rule="nonzero"></line>
            <line x1="41.7407" y1="70.2227" x2="41.7407" y2="87.1648" id="Path" stroke="#172133" stroke-width="0.5" stroke-linecap="round" stroke-linejoin="round"></line>
            <line x1="41.7407" y1="90.0237" x2="41.7407" y2="103.3397" id="Path" stroke="#172133" stroke-width="0.5" stroke-linecap="round" stroke-linejoin="round"></line>
        </g>
    </g>
</svg>